<svg width="453" height="740" viewBox="0 0 453 740" fill="none" xmlns="http://www.w3.org/2000/svg">
<path d="M0.045607 39.2994C133.326 153.02 266.653 266.695 399.934 380.415C410.603 372.113 430.21 354.277 440.242 325.038C454.468 283.664 442.704 239.371 419.723 210.861C413.567 203.197 407.457 197.815 403.308 194.439C340.885 141.798 278.508 89.1576 216.085 36.5168C205.826 28.1691 188.864 16.4002 165.518 8.50864C118.416 -7.45693 77.789 3.21721 63.6994 7.14018C35.7027 14.9405 14.4543 28.0779 0 39.2538L0.045607 39.2994Z" fill="#151515"/>
<path d="M121.148 307.287C219.319 391.129 317.49 475.017 415.661 558.859C422.455 565.564 450.634 594.804 452.549 640.876C454.966 699.174 413.381 735.575 408.137 740C309.282 655.245 210.427 570.445 111.573 485.691C106.694 481.038 71.4469 446.096 75.3683 392.041C79.1072 340.587 115.448 311.666 121.148 307.287Z" fill="#151515"/>
</svg>
